<svg width="74" height="74" viewBox="0 0 74 74" fill="none" xmlns="http://www.w3.org/2000/svg">
<circle cx="37" cy="37" r="37" fill="white"/>
<g clip-path="url(#clip0_27_11)">
<path fill-rule="evenodd" clip-rule="evenodd" d="M38.3825 15.6226H37.974H37.9722H37L37.9394 15.7444L37.402 17.4339H37.8196C38.0011 17.4339 38.1539 17.3705 38.2781 17.2694C38.402 17.1684 38.5051 17.0323 38.5867 16.8868C38.6685 16.7413 38.7275 16.5897 38.7637 16.4321C38.8001 16.2745 38.8182 16.1348 38.8182 16.0176C38.8182 15.9085 38.7911 15.8143 38.7366 15.7394C38.6821 15.6647 38.5641 15.6226 38.3825 15.6226Z" fill="#603813"/>
<g clip-path="url(#clip1_27_11)">
<mask id="mask0_27_11" style="mask-type:alpha" maskUnits="userSpaceOnUse" x="24" y="11" width="26" height="11">
<path fill-rule="evenodd" clip-rule="evenodd" d="M50 11.5817H24.6465V21.5H50V11.5817Z" fill="white"/>
</mask>
<g mask="url(#mask0_27_11)">
<path fill-rule="evenodd" clip-rule="evenodd" d="M37.2906 12.0519C31.7988 12.0519 27.0263 15.8059 24.6027 21.9703C25.6376 21.3258 26.8109 20.9368 28.0502 20.8842C31.1818 20.8842 33.4654 21.5162 37.5 21.5162C41.4696 21.5162 43.2615 20.8928 46.7956 20.8928C47.934 20.9679 49.0041 21.3315 49.9562 21.9131C47.5258 15.7825 42.7656 12.0519 37.2906 12.0519Z" fill="#603813"/>
<path d="M37 15L33 19H41L37 15Z" stroke="white" stroke-width="0.8"/>
<path d="M37.1342 20.1342L40.9953 16L33 16.273L37.1342 20.1342Z" stroke="white" stroke-width="0.8"/>
</g>
</g>
<path fill-rule="evenodd" clip-rule="evenodd" d="M48.002 30.5834C47.3492 30.5834 46.8201 30.0689 46.8201 29.434C46.8201 28.7991 47.3492 28.2845 48.002 28.2845C48.6548 28.2845 49.1839 28.7991 49.1839 29.434C49.1839 30.0689 48.6548 30.5834 48.002 30.5834ZM45.9338 32.595C45.281 32.595 44.7519 32.0805 44.7519 31.4456C44.7519 30.8107 45.281 30.2961 45.9338 30.2961C46.5865 30.2961 47.1156 30.8107 47.1156 31.4456C47.1156 32.0805 46.5865 32.595 45.9338 32.595ZM43.8655 30.5834C43.2127 30.5834 42.6836 30.0689 42.6836 29.434C42.6836 28.7991 43.2127 28.2845 43.8655 28.2845C44.5183 28.2845 45.0474 28.7991 45.0474 29.434C45.0474 30.0689 44.5183 30.5834 43.8655 30.5834ZM45.9338 26.2729C46.5865 26.2729 47.1156 26.7875 47.1156 27.4224C47.1156 28.0573 46.5865 28.5718 45.9338 28.5718C45.281 28.5718 44.7519 28.0573 44.7519 27.4224C44.7519 26.7875 45.281 26.2729 45.9338 26.2729ZM31.3328 29.5297C31.3328 30.0587 30.892 30.4877 30.348 30.4877H30.151C29.6071 30.4877 29.1661 30.9166 29.1661 31.4456V31.6371C29.1661 32.1661 28.7253 32.595 28.1812 32.595H27.7873C27.2434 32.595 26.8024 32.1661 26.8024 31.6371V31.4456C26.8024 30.9166 26.3615 30.4877 25.8175 30.4877H25.6205C25.0767 30.4877 24.6356 30.0587 24.6356 29.5297V29.1466C24.6356 28.6176 25.0767 28.1887 25.6205 28.1887H25.8175C26.3615 28.1887 26.8024 27.7597 26.8024 27.2308C26.8024 26.7018 27.2434 26.2729 27.7873 26.2729H28.1812C28.7253 26.2729 29.1661 26.7018 29.1661 27.2308C29.1661 27.7597 29.6071 28.1887 30.151 28.1887H30.348C30.892 28.1887 31.3328 28.6176 31.3328 29.1466V29.5297ZM46.3427 21.9623C41.9306 21.9623 42.7335 22.7286 37.0003 22.7286C31.2673 22.7286 32.1162 21.9623 27.7605 21.9623C23.4045 21.9623 19.8105 25.2841 19.7287 29.4868C19.6446 33.8148 23.2267 37.3537 27.6575 37.3537C31.3204 37.3537 34.4025 34.9283 35.3134 31.6877C35.5184 30.9582 36.1806 30.4877 36.9583 30.4877H37.0424C37.8006 30.4877 38.4782 30.926 38.6734 31.6385C39.6407 35.1688 43.1873 37.7626 47.2651 37.3064C50.8716 36.9031 54.0868 33.5725 54.2633 30.0461C54.4855 25.6092 50.755 21.9623 46.3427 21.9623Z" fill="#603813"/>
<path fill-rule="evenodd" clip-rule="evenodd" d="M41.7899 44.5806C41.7698 44.6601 41.7441 44.7379 41.7214 44.8169C41.6467 44.9378 41.0368 45.8614 39.5787 46.2939C39.3912 46.3495 39.182 46.6127 39.3042 46.7869C39.437 46.9763 40.0032 47.243 40.2306 47.5996C40.1966 47.636 40.1631 47.673 40.1279 47.7079C39.6597 48.1735 39.1095 48.5417 38.4946 48.7618C38.1883 48.8722 37.8714 48.9601 37.5447 49.0104C37.2187 49.0623 36.8857 49.0859 36.5502 49.0844L36.2942 49.0806C36.2144 49.0756 36.1379 49.0758 36.0548 49.0674C35.8909 49.056 35.7285 49.0367 35.5679 49.0104C35.2462 48.9597 34.9345 48.872 34.6338 48.7608C34.0303 48.5396 33.494 48.1695 33.041 47.7022C33.0134 47.6736 32.9895 47.641 32.9627 47.6116C33.185 47.2489 33.7631 46.9784 33.8974 46.7869C34.0197 46.6127 33.8105 46.3495 33.623 46.2939C32.3976 45.9304 31.7731 45.2217 31.5599 44.9322C31.5268 44.8155 31.4931 44.699 31.4656 44.5808C31.4562 44.5429 31.4482 44.504 31.4395 44.4657C31.534 44.5044 31.6289 44.5396 31.7242 44.5742C31.953 44.6508 32.1831 44.7191 32.4151 44.7749C32.6468 44.8337 32.8799 44.8794 33.1133 44.9242C33.3472 44.9635 33.5809 45.0039 33.8158 45.032C34.0503 45.0663 34.2854 45.0867 34.5204 45.1107C34.7555 45.1347 34.9909 45.1458 35.2262 45.1639L35.9321 45.1946L36.6381 45.2055C36.8791 45.2087 37.1073 45.2011 37.3423 45.1994C37.5745 45.1996 37.8138 45.183 38.0494 45.1752C38.2862 45.1685 38.5205 45.1445 38.7563 45.1298C38.9916 45.1109 39.2268 45.0844 39.4617 45.0583C39.6966 45.0253 39.9317 44.9967 40.1654 44.9521C40.3997 44.9134 40.633 44.8623 40.8654 44.8053C41.0977 44.7469 41.3291 44.6815 41.5577 44.5967C41.6425 44.5652 41.727 44.5314 41.8112 44.4945C41.8038 44.5232 41.7975 44.5524 41.7899 44.5806ZM42.446 42.9883L42.8163 43.0667C42.8163 43.0667 41.9135 44.1865 40.7629 44.394C40.5391 44.4344 40.3185 44.4975 40.0918 44.5349C39.8666 44.5778 39.6378 44.6056 39.41 44.6376C39.1808 44.663 38.9516 44.6889 38.7215 44.7074C38.491 44.7215 38.2603 44.7456 38.03 44.7519C37.7988 44.7593 37.5717 44.7757 37.3366 44.7755C37.1048 44.7772 36.8657 44.785 36.6398 44.7818L35.9445 44.7709L35.2507 44.741C35.0202 44.7231 34.7888 44.7122 34.559 44.6888C34.3295 44.6651 34.099 44.6453 33.8712 44.6117C33.642 44.5845 33.4155 44.5454 33.1886 44.5072C32.9632 44.4638 32.7434 44.3894 32.5167 44.3636C31.6913 44.2698 30.2859 42.9816 30.2859 42.9816L30.6561 42.9033C30.5609 42.8348 30.0109 42.6112 29.7273 43.0997L29.9466 43.0533C30.0734 43.0264 30.1978 43.0985 30.2423 43.2207C30.3406 43.4909 30.9893 44.4773 31.0059 44.6628C31.0243 44.8462 31.0327 45.0287 31.0639 45.2108C31.1278 45.5744 31.2124 45.9339 31.33 46.2881C31.4509 46.6411 31.5966 46.9868 31.7773 47.3201C31.9572 47.6538 32.1751 47.9691 32.4244 48.263C32.6736 48.5574 32.9592 48.8245 33.2759 49.0522C33.5922 49.2808 33.9358 49.4715 34.2956 49.6208C34.656 49.7687 35.0322 49.8717 35.4107 49.938C35.5999 49.9712 35.7899 49.996 35.9801 50.0116C36.0736 50.0219 36.1746 50.0244 36.2718 50.0307L36.5411 50.0378H36.5491C36.9317 50.0378 37.317 50.004 37.6997 49.9384C38.0819 49.8728 38.4621 49.7704 38.8267 49.6244C39.1909 49.4766 39.5399 49.2882 39.862 49.0625C40.1844 48.8369 40.4788 48.573 40.7357 48.2805C41.257 47.6997 41.6307 47.0156 41.892 46.3091C42.0193 45.9535 42.122 45.5922 42.1946 45.2257C42.2304 45.0423 42.7615 43.5312 42.8426 43.2945C42.8825 43.1775 43.0036 43.1103 43.1244 43.1353L43.3637 43.1847C43.0299 42.6865 42.5054 42.9261 42.446 42.9883Z" fill="#603813"/>
<mask id="mask1_27_11" style="mask-type:alpha" maskUnits="userSpaceOnUse" x="17" y="27" width="40" height="33">
<path fill-rule="evenodd" clip-rule="evenodd" d="M57 43.7545V60H17V43.7545V27.5089H57V43.7545Z" fill="white"/>
</mask>
<g mask="url(#mask1_27_11)">
<path fill-rule="evenodd" clip-rule="evenodd" d="M54.8944 27.7201L53.8573 27.5089C54.3359 28.4696 54.6142 29.5434 54.6359 30.682C54.7056 34.326 52.2186 37.4105 48.8278 38.2992C48.2363 41.0368 44.9647 54.2515 37.1318 54.2515H37.0852C29.0427 54.0691 25.7555 41.3404 25.0882 38.3044C21.6882 37.422 19.1922 34.3325 19.2621 30.682C19.2837 29.5524 19.5583 28.4868 20.0299 27.5319L19.1056 27.7201C17.8518 27.9728 17 29.062 17 30.3259V37.7361C17 38.9998 17.8579 40.0892 19.1115 40.3419L22.1381 40.9562C22.1629 41.4695 22.1771 42.1382 22.1917 42.9196C22.2274 44.7772 22.1864 47.2633 21.9567 49.7267C21.8971 50.3417 21.8285 50.9564 21.7447 51.5575C21.7047 51.8586 21.6608 52.1568 21.6115 52.4495C21.567 52.7437 21.5146 53.0319 21.4608 53.315C21.3963 53.6652 21.3252 54.0048 21.2511 54.3347L20.7348 54.1328L19.4922 58.0562L19.9485 58.257C19.9268 58.3018 19.905 58.3469 19.8849 58.3885C19.7748 58.629 19.6616 58.7984 19.5969 58.9238C19.5283 59.0463 19.4918 59.1117 19.4918 59.1117L19.4705 59.1497C19.328 59.4067 19.4043 59.7333 19.6548 59.901C19.9208 60.0791 20.2825 60.0105 20.4627 59.7477C20.4627 59.7477 20.5101 59.6789 20.5984 59.5498C20.6823 59.4188 20.8274 59.2351 20.9717 58.984C21.0128 58.9154 21.0569 58.8417 21.1027 58.7652L21.5955 58.9823L23.5078 55.2181L22.7794 54.9329C22.9093 54.5378 23.035 54.127 23.1528 53.7037C23.2361 53.4115 23.3177 53.1134 23.3917 52.8106C23.4709 52.5083 23.5433 52.2013 23.6132 51.8912C23.7571 51.2715 23.8831 50.6394 24.0023 50.0059C24.3829 47.9453 24.6301 45.8704 24.7823 44.1332C25.1625 45.1667 25.6117 46.2833 26.1384 47.3629C28.9262 53.0753 32.7072 56.1694 37.0724 56.1694H37.132C41.4464 56.1694 45.1837 53.0235 47.9412 47.1253C48.3348 46.2831 48.6831 45.4237 48.9893 44.6075C49.1429 46.2453 49.3779 48.1314 49.7254 50.0134C49.8447 50.6469 49.9693 51.2753 50.113 51.895C50.1831 52.2049 50.2548 52.5101 50.334 52.8125C50.4082 53.1153 50.4893 53.4122 50.5726 53.7047C50.6905 54.128 50.8159 54.5382 50.946 54.9335L50.2175 55.2183L52.1297 58.9823L52.6225 58.7654C52.6684 58.8419 52.7122 58.9154 52.7534 58.984C52.8979 59.2351 53.0427 59.4188 53.1266 59.55C53.2151 59.6789 53.2623 59.7477 53.2623 59.7477C53.4295 59.9897 53.7602 60.0728 54.025 59.9284C54.3064 59.7749 54.4085 59.4255 54.2532 59.1476L54.2332 59.1117C54.2332 59.1117 54.1967 59.0463 54.1282 58.9238C54.0637 58.7984 53.9505 58.629 53.8402 58.3885C53.82 58.3469 53.7983 58.3018 53.7767 58.257L54.233 58.0562L52.9907 54.1328L52.4744 54.3347C52.4002 54.0048 52.3293 53.6652 52.265 53.315C52.2113 53.0319 52.1594 52.7437 52.115 52.4495C52.0656 52.1568 52.0231 51.8586 51.9831 51.5575C51.8992 50.9564 51.8334 50.3417 51.7738 49.7267C51.5441 47.2633 51.5084 44.7772 51.5443 42.9196C51.5583 42.1589 51.5823 41.5057 51.6064 40.9981L54.8538 40.3419C56.1076 40.0892 57 38.9998 57 37.7361V30.3259C57 29.062 56.1482 27.9728 54.8944 27.7201Z" fill="#603813"/>
</g>
<path fill-rule="evenodd" clip-rule="evenodd" d="M36.5867 41.8279C38.2089 42.1512 38.6985 41.0538 39.2088 40.6813C40.3693 39.834 39.2569 38.3335 38.9929 37.4886C38.7265 36.6356 38.3596 35.5334 38.1313 34.7195C38.0955 34.5914 37.9175 34.6314 37.932 34.7643C38.1357 36.6455 39.1021 39.3481 38.7239 39.834C37.8503 40.9561 36.7366 40.8606 36.3094 40.8391C34.6195 40.7535 34.9253 41.4969 36.5867 41.8279Z" fill="#603813"/>
</g>
<defs>
<clipPath id="clip0_27_11">
<rect width="40" height="49" fill="white" transform="translate(17 12)"/>
</clipPath>
<clipPath id="clip1_27_11">
<rect width="26" height="10" fill="white" transform="translate(24.2727 12)"/>
</clipPath>
</defs>
</svg>
