<?xml version="1.0" encoding="utf-8"?>
<!-- Generator: Adobe Illustrator 15.1.0, SVG Export Plug-In . SVG Version: 6.00 Build 0)  -->
<!DOCTYPE svg PUBLIC "-//W3C//DTD SVG 1.1//EN" "http://www.w3.org/Graphics/SVG/1.1/DTD/svg11.dtd">
<svg version="1.1" id="Layer_1" xmlns="http://www.w3.org/2000/svg" xmlns:xlink="http://www.w3.org/1999/xlink" x="0px" y="0px"
	 width="750px" height="500px" viewBox="0 0 750 500" enable-background="new 0 0 750 500" xml:space="preserve">
<g>
	<defs>
		<rect id="SVGID_1_" width="750" height="500"/>
	</defs>
	<clipPath id="SVGID_2_">
		<use xlink:href="#SVGID_1_"  overflow="visible"/>
	</clipPath>
	<rect clip-path="url(#SVGID_2_)" fill="#098EEF" width="750" height="500"/>
	<g clip-path="url(#SVGID_2_)">
		<defs>
			<rect id="SVGID_3_" width="750" height="500"/>
		</defs>
		<clipPath id="SVGID_4_">
			<use xlink:href="#SVGID_3_"  overflow="visible"/>
		</clipPath>
		<g opacity="0.3" clip-path="url(#SVGID_4_)">
			<g>
				<defs>
					<rect id="SVGID_5_" x="311.59" width="438.41" height="216.26"/>
				</defs>
				<clipPath id="SVGID_6_">
					<use xlink:href="#SVGID_5_"  overflow="visible"/>
				</clipPath>
				<path clip-path="url(#SVGID_6_)" fill="#098EEF" d="M318.805,2.664c-4.861,12.134-8.544,25.085-6.755,37.894
					c1.918,13.73,11.157,25.354,25.201,33.27c16.491,9.294,36.744,11.773,56.411,9.318c9.459-1.181,18.699-3.367,27.593-6.181
					c9.595-3.035,18.729-6.928,28.126-10.322c17.825-6.438,36.646-11.475,56.464-10.406c14.659,0.791,29.793,4.156,38.758,14.13
					c7.942,8.837,9.73,20.325,10.416,30.905c0.273,4.216,0.33,8.26-0.576,12.423c-0.897,4.119-2.253,8.171-3.688,12.188
					c-3.484,9.747-7.567,19.35-10.985,29.114c-3.344,9.553-6.437,19.455-6.591,29.431c-0.121,7.82,1.969,16.363,10.287,21.286
					c10.604,6.277,26.507,5.637,38.458,2.662c28.777-7.163,48.845-28.179,78.456-33.91c12.612-2.441,26.48-1.776,38.748,1.557
					c11.139,3.025,21.029,8.391,29.233,15.092c8.944,7.305,15.989,15.924,21.641,25.146V0H319.916
					C319.542,0.888,319.162,1.771,318.805,2.664"/>
			</g>
		</g>
		<g opacity="0.3" clip-path="url(#SVGID_4_)">
			<g>
				<defs>
					<rect id="SVGID_7_" y="243.66" width="424.92" height="256.34"/>
				</defs>
				<clipPath id="SVGID_8_">
					<use xlink:href="#SVGID_7_"  overflow="visible"/>
				</clipPath>
				<path clip-path="url(#SVGID_8_)" fill="#098EEF" d="M420.745,485.388c2.376-6.744,4.393-13.915,4.156-21.059
					c-0.201-6.062-1.649-12.061-4.11-17.674c-5.016-11.441-14.281-21.327-25.86-27.443c-5.725-3.023-12.031-5.107-18.563-5.955
					c-7.16-0.93-14.194,0.094-21.174,1.626c-13.225,2.903-27.451,8.105-41.146,4.673c-11.486-2.88-19.924-11.331-24.123-21.408
					c-2.104-5.051-3.242-10.432-3.62-15.827c-0.413-5.883,0.434-11.559,1.217-17.38c1.8-13.379,3.049-27.22-0.108-40.513
					c-2.728-11.484-8.965-23.058-20.27-29.105c-9.786-5.235-21.519-6.983-32.662-7.375c-11.468-0.402-23.089,0.659-34.243,3.168
					c-12.523,2.815-24.156,8.243-35.661,13.487c-12.89,5.874-25.871,11.913-39.88,15.156c-13.42,3.105-27.523,3.235-41.027,0.447
					c-11.846-2.446-22.875-7.57-31.593-15.46c-4.484-4.06-8.673-8.805-11.485-14.019c-2.622-4.86-4.557-10.014-6.562-15.11
					c-4.171-10.601-8.787-22.578-20.121-28.305c-4.237-2.14-8.988-3.257-13.91-3.653V500h414.661
					C416.901,495.209,418.993,490.363,420.745,485.388"/>
			</g>
		</g>
	</g>
	<g clip-path="url(#SVGID_2_)">
		<defs>
			<rect id="SVGID_9_" width="750" height="500"/>
		</defs>
		<clipPath id="SVGID_10_">
			<use xlink:href="#SVGID_9_"  overflow="visible"/>
		</clipPath>
		<g opacity="0.1" clip-path="url(#SVGID_10_)">
			<g>
				<defs>
					<rect id="SVGID_11_" width="750" height="500"/>
				</defs>
				<clipPath id="SVGID_12_">
					<use xlink:href="#SVGID_11_"  overflow="visible"/>
				</clipPath>
				<polygon clip-path="url(#SVGID_12_)" fill="#FFFFFF" points="10.79,0 0,11.26 0,9.28 8.9,0 				"/>
				<polygon clip-path="url(#SVGID_12_)" fill="#1A1A1A" points="22.13,0 0,23.08 0,21.1 20.23,0 				"/>
				<polygon clip-path="url(#SVGID_12_)" fill="#1A1A1A" points="33.46,0 0,34.9 0,32.93 31.57,0 				"/>
				<polygon clip-path="url(#SVGID_12_)" points="44.79,0 0,46.72 0,44.75 42.9,0 				"/>
				<polygon clip-path="url(#SVGID_12_)" fill="#666666" points="56.12,0 0,58.54 0,56.57 54.23,0 				"/>
				<polygon clip-path="url(#SVGID_12_)" fill="#B3B3B3" points="67.46,0 0,70.37 0,68.39 65.56,0 				"/>
				<polygon clip-path="url(#SVGID_12_)" points="78.79,0 0,82.19 0,80.21 76.9,0 				"/>
				<polygon clip-path="url(#SVGID_12_)" fill="#E6E6E6" points="90.13,0 0,94.02 0,92.03 88.23,0 				"/>
				<polygon clip-path="url(#SVGID_12_)" fill="#E6E6E6" points="101.47,0 0,105.84 0,103.86 99.56,0 				"/>
				<polygon clip-path="url(#SVGID_12_)" fill="#1A1A1A" points="112.8,0 0,117.66 0,115.68 110.9,0 				"/>
				<polygon clip-path="url(#SVGID_12_)" fill="#666666" points="124.13,0 0,129.48 0,127.51 122.24,0 				"/>
				<polygon clip-path="url(#SVGID_12_)" fill="#B3B3B3" points="135.46,0 0,141.3 0,139.32 133.56,0 				"/>
				<polygon clip-path="url(#SVGID_12_)" fill="#E6E6E6" points="146.8,0 0,153.13 0,151.15 144.9,0 				"/>
				<polygon clip-path="url(#SVGID_12_)" fill="#1A1A1A" points="158.13,0 0,164.95 0,162.97 156.23,0 				"/>
				<polygon clip-path="url(#SVGID_12_)" fill="#B3B3B3" points="169.47,0 0,176.78 0,174.79 167.56,0 				"/>
				<polygon clip-path="url(#SVGID_12_)" fill="#FFFFFF" points="180.79,0 0,188.59 0,186.61 178.9,0 				"/>
				<polygon clip-path="url(#SVGID_12_)" fill="#666666" points="192.13,0 0,200.42 0,198.44 190.24,0 				"/>
				<polygon clip-path="url(#SVGID_12_)" fill="#1A1A1A" points="203.46,0 0,212.24 0,210.27 201.57,0 				"/>
				<polygon clip-path="url(#SVGID_12_)" fill="#FFFFFF" points="214.8,0 0,224.06 0,222.09 212.91,0 				"/>
				<polygon clip-path="url(#SVGID_12_)" fill="#666666" points="226.13,0 0,235.89 0,233.91 224.24,0 				"/>
				<polygon clip-path="url(#SVGID_12_)" fill="#B3B3B3" points="237.47,0 0,247.71 0,245.73 235.57,0 				"/>
				<polygon clip-path="url(#SVGID_12_)" fill="#666666" points="248.8,0 0,259.53 0,257.55 246.9,0 				"/>
				<polygon clip-path="url(#SVGID_12_)" fill="#B3B3B3" points="260.13,0 0,271.35 0,269.38 258.24,0 				"/>
				<polygon clip-path="url(#SVGID_12_)" points="271.46,0 0,283.17 0,281.2 269.57,0 				"/>
				<polygon clip-path="url(#SVGID_12_)" fill="#B3B3B3" points="282.79,0 0,294.99 0,293.02 280.91,0 				"/>
				<polygon clip-path="url(#SVGID_12_)" fill="#1A1A1A" points="294.13,0 0,306.82 0,304.84 292.24,0 				"/>
				<polygon clip-path="url(#SVGID_12_)" fill="#B3B3B3" points="305.47,0 0,318.64 0,316.66 303.57,0 				"/>
				<polygon clip-path="url(#SVGID_12_)" fill="#E6E6E6" points="316.8,0 0,330.47 0,328.48 314.9,0 				"/>
				<polygon clip-path="url(#SVGID_12_)" fill="#E6E6E6" points="328.14,0 0,342.29 0,340.3 326.23,0 				"/>
				<polygon clip-path="url(#SVGID_12_)" fill="#FFFFFF" points="339.47,0 0,354.11 0,352.13 337.57,0 				"/>
				<polygon clip-path="url(#SVGID_12_)" fill="#B3B3B3" points="350.8,0 0,365.93 0,363.96 348.91,0 				"/>
				<polygon clip-path="url(#SVGID_12_)" fill="#B3B3B3" points="362.13,0 0,377.75 0,375.78 360.24,0 				"/>
				<polygon clip-path="url(#SVGID_12_)" fill="#FFFFFF" points="373.47,0 0,389.58 0,387.6 371.57,0 				"/>
				<polygon clip-path="url(#SVGID_12_)" fill="#FFFFFF" points="384.8,0 0,401.4 0,399.42 382.91,0 				"/>
				<polygon clip-path="url(#SVGID_12_)" fill="#1A1A1A" points="396.14,0 0,413.23 0,411.24 394.24,0 				"/>
				<polygon clip-path="url(#SVGID_12_)" fill="#1A1A1A" points="407.47,0 0,425.05 0,423.06 405.57,0 				"/>
				<polygon clip-path="url(#SVGID_12_)" fill="#B3B3B3" points="418.8,0 0,436.87 0,434.89 416.91,0 				"/>
				<polygon clip-path="url(#SVGID_12_)" fill="#E6E6E6" points="430.14,0 0,448.69 0,446.72 428.24,0 				"/>
				<polygon clip-path="url(#SVGID_12_)" fill="#666666" points="441.47,0 0,460.51 0,458.54 439.57,0 				"/>
				<polygon clip-path="url(#SVGID_12_)" points="452.81,0 0,472.34 0,470.36 450.91,0 				"/>
				<polygon clip-path="url(#SVGID_12_)" points="464.14,0 0,484.16 0,482.19 462.24,0 				"/>
				<polygon clip-path="url(#SVGID_12_)" fill="#E6E6E6" points="475.47,0 0,495.98 0,494 473.57,0 				"/>
				<polygon clip-path="url(#SVGID_12_)" fill="#666666" points="486.81,0 7.479,500 5.581,500 484.91,0 				"/>
				<polygon clip-path="url(#SVGID_12_)" fill="#E6E6E6" points="498.14,0 18.81,500 16.911,500 496.24,0 				"/>
				<polygon clip-path="url(#SVGID_12_)" fill="#E6E6E6" points="509.47,0 30.14,500 28.25,500 507.58,0 				"/>
				<polygon clip-path="url(#SVGID_12_)" fill="#B3B3B3" points="520.81,0 41.479,500 39.581,500 518.91,0 				"/>
				<polygon clip-path="url(#SVGID_12_)" fill="#1A1A1A" points="532.14,0 52.81,500 50.911,500 530.24,0 				"/>
				<polygon clip-path="url(#SVGID_12_)" fill="#B3B3B3" points="543.47,0 64.15,500 62.241,500 541.57,0 				"/>
				<polygon clip-path="url(#SVGID_12_)" fill="#FFFFFF" points="554.81,0 75.479,500 73.581,500 552.91,0 				"/>
				<polygon clip-path="url(#SVGID_12_)" points="566.14,0 86.81,500 84.911,500 564.24,0 				"/>
				<polygon clip-path="url(#SVGID_12_)" fill="#1A1A1A" points="577.47,0 98.15,500 96.25,500 575.58,0 				"/>
				<polygon clip-path="url(#SVGID_12_)" fill="#E6E6E6" points="588.81,0 109.479,500 107.581,500 586.91,0 				"/>
				<polygon clip-path="url(#SVGID_12_)" fill="#1A1A1A" points="600.14,0 120.81,500 118.919,500 598.24,0 				"/>
				<polygon clip-path="url(#SVGID_12_)" fill="#B3B3B3" points="611.47,0 132.15,500 130.25,500 609.58,0 				"/>
				<polygon clip-path="url(#SVGID_12_)" fill="#E6E6E6" points="622.81,0 143.479,500 141.581,500 620.91,0 				"/>
				<polygon clip-path="url(#SVGID_12_)" fill="#E6E6E6" points="634.15,0 154.819,500 152.92,500 632.25,0 				"/>
				<polygon clip-path="url(#SVGID_12_)" fill="#FFFFFF" points="645.47,0 166.15,500 164.25,500 643.58,0 				"/>
				<polygon clip-path="url(#SVGID_12_)" fill="#E6E6E6" points="656.81,0 177.479,500 175.581,500 654.91,0 				"/>
				<polygon clip-path="url(#SVGID_12_)" fill="#FFFFFF" points="668.14,0 188.819,500 186.919,500 666.24,0 				"/>
				<polygon clip-path="url(#SVGID_12_)" fill="#FFFFFF" points="679.48,0 200.149,500 198.25,500 677.58,0 				"/>
				<polygon clip-path="url(#SVGID_12_)" fill="#E6E6E6" points="690.81,0 211.479,500 209.589,500 688.92,0 				"/>
				<polygon clip-path="url(#SVGID_12_)" fill="#1A1A1A" points="702.14,0 222.819,500 220.919,500 700.24,0 				"/>
				<polygon clip-path="url(#SVGID_12_)" fill="#1A1A1A" points="713.48,0 234.149,500 232.25,500 711.58,0 				"/>
				<polygon clip-path="url(#SVGID_12_)" fill="#E6E6E6" points="724.81,0 245.479,500 243.589,500 722.92,0 				"/>
				<polygon clip-path="url(#SVGID_12_)" fill="#FFFFFF" points="736.14,0 256.819,500 254.919,500 734.25,0 				"/>
				<polygon clip-path="url(#SVGID_12_)" fill="#E6E6E6" points="747.47,0 268.15,500 266.26,500 745.58,0 				"/>
				<polygon clip-path="url(#SVGID_12_)" fill="#FFFFFF" points="750,7.21 750,9.2 279.49,500 277.59,500 				"/>
				<polygon clip-path="url(#SVGID_12_)" fill="#FFFFFF" points="750,19.03 750,21.01 290.82,500 288.92,500 				"/>
				<polygon clip-path="url(#SVGID_12_)" fill="#B3B3B3" points="750,30.85 750,32.83 302.15,500 300.26,500 				"/>
				<polygon clip-path="url(#SVGID_12_)" fill="#1A1A1A" points="750,42.68 750,44.65 313.49,500 311.59,500 				"/>
				<polygon clip-path="url(#SVGID_12_)" fill="#E6E6E6" points="750,54.49 750,56.48 324.82,500 322.92,500 				"/>
				<polygon clip-path="url(#SVGID_12_)" points="750,66.33 750,68.3 336.15,500 334.26,500 				"/>
				<polygon clip-path="url(#SVGID_12_)" fill="#1A1A1A" points="750,78.15 750,80.12 347.49,500 345.59,500 				"/>
				<polygon clip-path="url(#SVGID_12_)" fill="#FFFFFF" points="750,89.97 750,91.939 358.82,500 356.92,500 				"/>
				<polygon clip-path="url(#SVGID_12_)" fill="#1A1A1A" points="750,101.79 750,103.77 370.15,500 368.25,500 				"/>
				<polygon clip-path="url(#SVGID_12_)" fill="#B3B3B3" points="750,113.61 750,115.59 381.49,500 379.59,500 				"/>
				<polygon clip-path="url(#SVGID_12_)" fill="#1A1A1A" points="750,125.43 750,127.42 392.82,500 390.92,500 				"/>
				<polygon clip-path="url(#SVGID_12_)" fill="#E6E6E6" points="750,137.25 750,139.23 404.15,500 402.26,500 				"/>
				<polygon clip-path="url(#SVGID_12_)" fill="#FFFFFF" points="750,149.08 750,151.05 415.49,500 413.59,500 				"/>
				<polygon clip-path="url(#SVGID_12_)" fill="#666666" points="750,160.9 750,162.88 426.82,500 424.92,500 				"/>
				<polygon clip-path="url(#SVGID_12_)" fill="#B3B3B3" points="750,172.73 750,174.7 438.15,500 436.26,500 				"/>
				<polygon clip-path="url(#SVGID_12_)" fill="#E6E6E6" points="750,184.55 750,186.53 449.49,500 447.59,500 				"/>
				<polygon clip-path="url(#SVGID_12_)" fill="#666666" points="750,196.37 750,198.35 460.82,500 458.92,500 				"/>
				<polygon clip-path="url(#SVGID_12_)" fill="#FFFFFF" points="750,208.19 750,210.17 472.15,500 470.26,500 				"/>
				<polygon clip-path="url(#SVGID_12_)" fill="#1A1A1A" points="750,220.01 750,221.99 483.49,500 481.59,500 				"/>
				<polygon clip-path="url(#SVGID_12_)" fill="#E6E6E6" points="750,231.84 750,233.81 494.82,500 492.93,500 				"/>
				<polygon clip-path="url(#SVGID_12_)" fill="#666666" points="750,243.66 750,245.64 506.16,500 504.26,500 				"/>
				<polygon clip-path="url(#SVGID_12_)" fill="#1A1A1A" points="750,255.48 750,257.47 517.5,500.001 515.59,500.001 				"/>
				<polygon clip-path="url(#SVGID_12_)" fill="#666666" points="750,267.3 750,269.29 528.83,500 526.93,500 				"/>
				<polygon clip-path="url(#SVGID_12_)" points="750,279.13 750,281.11 540.16,500 538.26,500 				"/>
				<polygon clip-path="url(#SVGID_12_)" fill="#E6E6E6" points="750,290.95 750,292.93 551.49,500 549.6,500 				"/>
				<polygon clip-path="url(#SVGID_12_)" fill="#B3B3B3" points="750,302.78 750,304.75 562.83,500 560.93,500 				"/>
				<polygon clip-path="url(#SVGID_12_)" points="750,314.6 750,316.57 574.16,500 572.26,500 				"/>
				<polygon clip-path="url(#SVGID_12_)" points="750,326.42 750,328.39 585.49,500 583.6,500 				"/>
				<polygon clip-path="url(#SVGID_12_)" fill="#FFFFFF" points="750,338.24 750,340.219 596.83,500 594.93,500 				"/>
				<polygon clip-path="url(#SVGID_12_)" fill="#FFFFFF" points="750,350.06 750,352.04 608.16,500 606.26,500 				"/>
				<polygon clip-path="url(#SVGID_12_)" fill="#E6E6E6" points="750,361.88 750,363.86 619.49,500 617.6,500 				"/>
				<polygon clip-path="url(#SVGID_12_)" points="750,373.7 750,375.69 630.83,500 628.93,500 				"/>
				<polygon clip-path="url(#SVGID_12_)" fill="#E6E6E6" points="750,385.53 750,387.51 642.16,500 640.26,500 				"/>
				<polygon clip-path="url(#SVGID_12_)" fill="#666666" points="750,397.35 750,399.33 653.49,500 651.6,500 				"/>
				<polygon clip-path="url(#SVGID_12_)" fill="#E6E6E6" points="750,409.18 750,411.15 664.83,500 662.93,500 				"/>
				<polygon clip-path="url(#SVGID_12_)" fill="#1A1A1A" points="750,421 750,422.98 676.16,500 674.26,500 				"/>
				<polygon clip-path="url(#SVGID_12_)" fill="#FFFFFF" points="750,432.82 750,434.799 687.49,500 685.6,500 				"/>
				<polygon clip-path="url(#SVGID_12_)" fill="#FFFFFF" points="750,444.64 750,446.619 698.83,500 696.93,500 				"/>
				<polygon clip-path="url(#SVGID_12_)" fill="#666666" points="750,456.46 750,458.44 710.16,500 708.26,500 				"/>
				<polygon clip-path="url(#SVGID_12_)" points="750,468.29 750,470.26 721.49,500 719.6,500 				"/>
				<polygon clip-path="url(#SVGID_12_)" fill="#1A1A1A" points="750,480.11 750,482.09 732.83,500 730.93,500 				"/>
				<polygon clip-path="url(#SVGID_12_)" fill="#666666" points="750,491.93 750,493.91 744.16,500 742.26,500 				"/>
			</g>
		</g>
	</g>
	<g clip-path="url(#SVGID_2_)">
		<defs>
			<rect id="SVGID_13_" width="750" height="500"/>
		</defs>
		<clipPath id="SVGID_14_">
			<use xlink:href="#SVGID_13_"  overflow="visible"/>
		</clipPath>
		<g opacity="0.3" clip-path="url(#SVGID_14_)">
			<g>
				<defs>
					<rect id="SVGID_15_" x="-5.916" y="-6.891" width="373.949" height="186.485"/>
				</defs>
				<clipPath id="SVGID_16_">
					<use xlink:href="#SVGID_15_"  overflow="visible"/>
				</clipPath>
				<path clip-path="url(#SVGID_16_)" d="M-5.917-6.891v164.157c5.462,0.482,11.707,2.053,18.777,4.928
					c31.236,12.702,69.853,24.758,104.383,11.896c37.793-14.077,18.688-49.044,38.407-72.195
					c26.055-30.588,53.866-0.758,84.846,2.272c40.025,3.914,23.366-42.824,60.43-45.492c16.718-1.204,29.296,2.635,42.603-8.166
					c10.829-8.791,12.771-21.438,15.564-33.092c1.829-7.632,3.806-16.996,8.94-24.308H-5.917z"/>
			</g>
		</g>
		<path clip-path="url(#SVGID_14_)" fill="#12BFF7" d="M-14.419-15.394v164.157c5.461,0.482,11.706,2.053,18.776,4.928
			c31.237,12.702,69.853,24.758,104.383,11.896c37.793-14.077,18.688-49.043,38.408-72.195c26.054-30.588,53.865-0.758,84.846,2.272
			c40.024,3.914,23.366-42.824,60.429-45.492c16.718-1.204,29.297,2.635,42.603-8.166c10.83-8.79,12.772-21.438,15.564-33.092
			c1.829-7.632,3.807-16.996,8.94-24.308H-14.419z"/>
		<g opacity="0.3" clip-path="url(#SVGID_14_)">
			<g>
				<defs>
					<rect id="SVGID_17_" x="580.056" y="-6.64" width="174.298" height="222.009"/>
				</defs>
				<clipPath id="SVGID_18_">
					<use xlink:href="#SVGID_17_"  overflow="visible"/>
				</clipPath>
				<path clip-path="url(#SVGID_18_)" d="M580.056-6.64c0.214,1.96,0.288,4.037,0.226,6.2c-0.607,21.191-0.067,43.252,14.517,60.891
					c12.987,15.709,38.106,20.769,47.536,39.16c9.315,18.169-7.486,32.284-9.517,50.431c-2.244,20.059,4.764,37.859,23.391,48.344
					c18.567,10.452,48.361,16.302,69.722,16.368c4.476,0.013,17.622-0.901,28.423,0.615V-6.64H580.056z"/>
			</g>
		</g>
		<path clip-path="url(#SVGID_14_)" fill="#B0F3FB" d="M588.81-15.394c0.215,1.96,0.288,4.037,0.226,6.2
			c-0.607,21.191-0.067,43.252,14.517,60.891c12.987,15.708,38.106,20.769,47.536,39.16c9.315,18.169-7.486,32.284-9.517,50.431
			c-2.244,20.059,4.764,37.859,23.391,48.344c18.567,10.452,48.361,16.301,69.722,16.367c4.477,0.014,17.622-0.9,28.423,0.616
			V-15.394H588.81z"/>
		<g opacity="0.3" clip-path="url(#SVGID_14_)">
			<g>
				<defs>
					<rect id="SVGID_19_" x="574.886" y="321.127" width="179.045" height="183.678"/>
				</defs>
				<clipPath id="SVGID_20_">
					<use xlink:href="#SVGID_19_"  overflow="visible"/>
				</clipPath>
				<path clip-path="url(#SVGID_20_)" d="M578.362,475.847c-3.455,8.104-0.885,19.779-3.478,28.958h179.046V321.127
					c-10.23,4.284-22.168,3.038-35.53,4.085c-9.966,0.781-18.648,2.138-25.944,8.235c-6.259,5.231-6.677,13.66-12.855,18.732
					c-28.466,23.369-65.601-24.91-94.263,6.708c-29.897,32.981,35.67,52.684,21.495,85.298
					C601.191,457.167,583.868,462.933,578.362,475.847"/>
			</g>
		</g>
		<path clip-path="url(#SVGID_14_)" fill="#3ACCF8" d="M587.076,484.562c-3.455,8.104-0.885,19.778-3.477,28.957h179.046V329.841
			c-10.23,4.284-22.169,3.038-35.531,4.086c-9.966,0.78-18.647,2.137-25.944,8.234c-6.259,5.231-6.677,13.66-12.855,18.732
			c-28.467,23.37-65.6-24.909-94.262,6.708c-29.898,32.98,35.67,52.684,21.494,85.298
			C609.905,465.881,592.582,471.646,587.076,484.562"/>
		<g opacity="0.3" clip-path="url(#SVGID_14_)">
			<g>
				<defs>
					<rect id="SVGID_21_" x="-6.47" y="363.346" width="419.279" height="142.259"/>
				</defs>
				<clipPath id="SVGID_22_">
					<use xlink:href="#SVGID_21_"  overflow="visible"/>
				</clipPath>
				<path clip-path="url(#SVGID_22_)" d="M412.81,505.604c-5.163-11.062,1.675-26.702-0.754-37.211
					c-3.866-16.734-20.662-27.991-42.047-31.904c-20.714-3.79-41.969,4.499-61.892,0.892c-20.768-3.761-20.141-18.134-24.131-31.245
					c-4.365-14.345-12.38-25.151-30.035-32.442c-47.205-19.497-80.582,11.185-119.698,26.715
					c-21.63,8.588-39.65,15.534-58.526,0.615c-12.666-10.01-18.289-25.806-34.275-33.348c-15.395-7.264-32.907-3.604-47.922-1.742
					v139.671H412.81z"/>
			</g>
		</g>
		<path clip-path="url(#SVGID_14_)" fill="#B0F3FB" d="M404.86,513.554c-5.163-11.062,1.675-26.702-0.754-37.211
			c-3.866-16.734-20.662-27.991-42.047-31.904c-20.714-3.79-41.969,4.499-61.892,0.892c-20.768-3.761-20.141-18.134-24.131-31.245
			c-4.365-14.345-12.38-25.151-30.035-32.442c-47.205-19.497-80.582,11.185-119.698,26.715c-21.63,8.588-39.65,15.534-58.526,0.615
			c-12.666-10.01-18.289-25.806-34.275-33.348c-15.395-7.264-32.907-3.604-47.922-1.742v139.671H404.86z"/>
		<g opacity="0.3" clip-path="url(#SVGID_14_)">
			<g>
				<defs>
					<rect id="SVGID_23_" x="-6.47" y="423.301" width="374.567" height="82.304"/>
				</defs>
				<clipPath id="SVGID_24_">
					<use xlink:href="#SVGID_23_"  overflow="visible"/>
				</clipPath>
				<path clip-path="url(#SVGID_24_)" d="M368.098,505.604c-0.665-5.212-1.755-10.427-4.463-15.469
					c-22.411-41.726-66.746,6.493-96.937-12.075c-16.813-10.341-15.264-32.078-37.072-38.541
					c-21.576-6.394-38.44,6.027-52.476,17.771c-29.178,24.413-70.691,30.103-101.117,2.479
					c-11.697-10.618-15.726-22.328-32.151-29.801c-17.407-7.919-33.741-7.882-50.352-4.545v80.181H368.098z"/>
			</g>
		</g>
		<path clip-path="url(#SVGID_14_)" fill="#3ACCF8" d="M360.148,513.554c-0.665-5.212-1.754-10.427-4.462-15.469
			c-22.412-41.726-66.746,6.493-96.937-12.075c-16.813-10.341-15.264-32.078-37.073-38.541c-21.575-6.395-38.44,6.027-52.475,17.771
			c-29.179,24.413-70.691,30.103-101.118,2.479c-11.696-10.618-15.726-22.328-32.151-29.801
			c-17.406-7.919-33.741-7.882-50.351-4.545v80.181H360.148z"/>
		<g opacity="0.3" clip-path="url(#SVGID_14_)">
			<g>
				<defs>
					<rect id="SVGID_25_" x="627.771" y="367.107" width="126.159" height="137.697"/>
				</defs>
				<clipPath id="SVGID_26_">
					<use xlink:href="#SVGID_25_"  overflow="visible"/>
				</clipPath>
				<path clip-path="url(#SVGID_26_)" d="M753.931,367.107c-12.583,1.484-25.329,2.711-33.834,11.93
					c-10.703,11.601-5.558,29.915-18.644,40.737c-17.41,14.399-43.117-2.724-59.588,12.206c-16.354,14.825-1.849,41.85-8.542,60.583
					c-1.514,4.238-3.381,8.321-5.553,12.241h126.16V367.107z"/>
			</g>
		</g>
		<path clip-path="url(#SVGID_14_)" fill="#098EEF" d="M762.646,375.821c-12.583,1.485-25.33,2.711-33.835,11.93
			c-10.703,11.602-5.558,29.915-18.645,40.738c-17.409,14.398-43.116-2.725-59.586,12.205c-16.354,14.825-1.85,41.85-8.543,60.584
			c-1.514,4.237-3.38,8.32-5.552,12.24h126.16V375.821z"/>
		<g opacity="0.3" clip-path="url(#SVGID_14_)">
			<g>
				<defs>
					<rect id="SVGID_27_" x="-5.916" y="-6.891" width="266.461" height="148.663"/>
				</defs>
				<clipPath id="SVGID_28_">
					<use xlink:href="#SVGID_27_"  overflow="visible"/>
				</clipPath>
				<path clip-path="url(#SVGID_28_)" d="M-5.917-6.891v136.312c21.878,9.147,43.127,18.91,66.407,6.453
					c23.574-12.614,32.253-41.36,47.263-61.903c11.076-15.158,23.875-27.634,42.302-32.781c24.234-6.768,50.488,6.345,73.753-5.135
					c17.38-8.577,26.017-27.605,36.736-42.946H-5.917z"/>
			</g>
		</g>
		<path clip-path="url(#SVGID_14_)" fill="#098EEF" d="M-14.419-15.394v136.312c21.878,9.147,43.126,18.91,66.407,6.453
			c23.573-12.613,32.253-41.36,47.263-61.903c11.076-15.158,23.874-27.634,42.302-32.781c24.233-6.768,50.488,6.345,73.752-5.135
			c17.381-8.577,26.018-27.605,36.737-42.946H-14.419z"/>
		<g opacity="0.3" clip-path="url(#SVGID_14_)">
			<g>
				<defs>
					<rect id="SVGID_29_" x="617.17" y="-6.64" width="137.184" height="184.524"/>
				</defs>
				<clipPath id="SVGID_30_">
					<use xlink:href="#SVGID_29_"  overflow="visible"/>
				</clipPath>
				<path clip-path="url(#SVGID_30_)" d="M618.021-6.64c-9.1,73.946,57.413,31.297,70.823,91.669
					c8.217,36.986-41.765,88.08,12.958,92.515c19.401,1.573,37.277-2.8,52.55-3.042V-6.64H618.021z"/>
			</g>
		</g>
		<path clip-path="url(#SVGID_14_)" fill="#3ACCF8" d="M626.775-15.394c-9.1,73.946,57.413,31.297,70.824,91.669
			c8.216,36.986-41.766,88.08,12.957,92.515c19.401,1.572,37.278-2.8,52.55-3.043V-15.394H626.775z"/>
	</g>
	<g clip-path="url(#SVGID_2_)">
		<defs>
			<rect id="SVGID_31_" width="750" height="500"/>
		</defs>
		<clipPath id="SVGID_32_">
			<use xlink:href="#SVGID_31_"  overflow="visible"/>
		</clipPath>
		<g opacity="0.15" clip-path="url(#SVGID_32_)">
			<g>
				<defs>
					<rect id="SVGID_33_" width="750" height="500"/>
				</defs>
				<clipPath id="SVGID_34_">
					<use xlink:href="#SVGID_33_"  overflow="visible"/>
				</clipPath>
				<path clip-path="url(#SVGID_34_)" fill="#FFFFFF" d="M750,0H550.521c-22.789,28.26-33.437,64.811-45.47,98.625
					c-12.058,33.879-30.864,68.972-71.764,70.247c-47.023,1.465-84.498-35.344-133.525-29.83
					c-87.896,9.884-94.472,130.51-178.222,137.739c-46.816,4.041-71.825-27.678-104.098-53.565
					C11.972,218.828,6.116,215.119,0,212.082V500h317.028c6.686-34.809,4.733-71.997,22.956-103.221
					c28.14-48.213,84.227-34.023,130.986-34.899c54.011-1.011,93.511-24.456,115.498-74.336
					c21.231-48.161,19.629-100.977,20.815-152.393c0.769-33.312,3.822-80.883,34.301-102.454
					c44.942-31.807,57.653,25.176,85.711,44.281c6.926,4.716,14.682,7.501,22.705,8.675V0z"/>
			</g>
		</g>
		<g opacity="0.1" clip-path="url(#SVGID_32_)">
			<g>
				<defs>
					<rect id="SVGID_35_" width="743.04" height="500"/>
				</defs>
				<clipPath id="SVGID_36_">
					<use xlink:href="#SVGID_35_"  overflow="visible"/>
				</clipPath>
				<path clip-path="url(#SVGID_36_)" fill="#FFFFFF" d="M743.04,0c-4.43,24.51-5.53,49.64-6.021,71
					c-1.849,80.14,0.651,162.45-32.438,237.51c-34.271,77.74-95.83,114.28-180.01,115.86c-72.87,1.36-160.291-20.75-204.14,54.39
					c-4.03,6.91-7.43,14-10.32,21.24H0V288.44C111.97,260.78,128.1,91.64,257.74,77.07c76.41-8.59,134.819,48.77,208.1,46.49
					c63.75-1.99,93.061-56.68,111.85-109.48c1.66-4.66,3.301-9.36,4.94-14.08H743.04z"/>
			</g>
		</g>
	</g>
	<g clip-path="url(#SVGID_2_)">
		<defs>
			<rect id="SVGID_37_" width="750" height="500"/>
		</defs>
		<clipPath id="SVGID_38_">
			<use xlink:href="#SVGID_37_"  overflow="visible"/>
		</clipPath>
		<g opacity="0.3" clip-path="url(#SVGID_38_)">
			<g>
				<defs>
					<rect id="SVGID_39_" x="157.249" y="422.412" width="130.78" height="130.78"/>
				</defs>
				<clipPath id="SVGID_40_">
					<use xlink:href="#SVGID_39_"  overflow="visible"/>
				</clipPath>
				<path clip-path="url(#SVGID_40_)" d="M225.542,449.354c21.202,1.602,37.147,20.151,35.546,41.353s-20.152,37.146-41.353,35.546
					c-21.201-1.602-37.147-20.152-35.546-41.354C185.792,463.697,204.341,447.752,225.542,449.354 M227.563,422.601
					c-36.01-2.719-67.406,24.268-70.125,60.277c-2.72,36.01,24.267,67.406,60.277,70.126c36.01,2.72,67.406-24.268,70.125-60.277
					C290.561,456.717,263.572,425.32,227.563,422.601"/>
			</g>
		</g>
		<path clip-path="url(#SVGID_38_)" fill="#FFFFFF" d="M215.542,459.354c21.202,1.602,37.147,20.151,35.546,41.353
			s-20.152,37.146-41.353,35.546c-21.201-1.602-37.147-20.152-35.546-41.354C175.792,473.697,194.341,457.752,215.542,459.354
			 M217.563,432.601c-36.01-2.719-67.406,24.268-70.125,60.277c-2.72,36.01,24.267,67.406,60.277,70.126
			c36.01,2.72,67.406-24.268,70.125-60.277C280.561,466.717,253.572,435.32,217.563,432.601"/>
		<g opacity="0.3" clip-path="url(#SVGID_38_)">
			<g>
				<defs>
					<rect id="SVGID_41_" x="673.173" y="-45.514" width="130.78" height="130.78"/>
				</defs>
				<clipPath id="SVGID_42_">
					<use xlink:href="#SVGID_41_"  overflow="visible"/>
				</clipPath>
				<path clip-path="url(#SVGID_42_)" d="M741.466-18.573c21.202,1.601,37.147,20.152,35.547,41.353
					c-1.602,21.201-20.152,37.146-41.354,35.545s-37.146-20.151-35.546-41.353C701.715-4.229,720.266-20.174,741.466-18.573
					 M743.487-45.325c-36.01-2.72-67.406,24.268-70.126,60.277c-2.719,36.01,24.268,67.406,60.277,70.125
					c36.01,2.72,67.406-24.267,70.126-60.277C806.483-11.209,779.497-42.605,743.487-45.325"/>
			</g>
		</g>
		<path clip-path="url(#SVGID_38_)" fill="#FFFFFF" d="M751.466-28.573c21.202,1.601,37.147,20.152,35.547,41.353
			c-1.602,21.201-20.152,37.146-41.354,35.545s-37.146-20.151-35.546-41.353C711.715-14.229,730.266-30.174,751.466-28.573
			 M753.487-55.325c-36.01-2.72-67.406,24.268-70.126,60.277c-2.719,36.01,24.268,67.406,60.277,70.125
			c36.01,2.72,67.406-24.267,70.126-60.277C816.483-21.209,789.497-52.605,753.487-55.325"/>
		<g opacity="0.3" clip-path="url(#SVGID_38_)">
			<g>
				<defs>
					<rect id="SVGID_43_" x="662.463" y="406.091" width="116.518" height="116.517"/>
				</defs>
				<clipPath id="SVGID_44_">
					<use xlink:href="#SVGID_43_"  overflow="visible"/>
				</clipPath>
				<path clip-path="url(#SVGID_44_)" d="M728.778,506.3c-23.133,4.442-45.565-10.763-50.009-33.894
					c-4.441-23.133,10.764-45.565,33.896-50.008s45.564,10.763,50.008,33.895C767.115,479.425,751.91,501.857,728.778,506.3
					 M731.707,521.552c31.592-6.067,52.284-36.596,46.217-68.188c-6.066-31.593-36.596-52.284-68.188-46.218
					c-31.593,6.067-52.284,36.596-46.218,68.188C669.586,506.926,700.114,527.618,731.707,521.552"/>
			</g>
		</g>
		<path clip-path="url(#SVGID_38_)" fill="#FFFFFF" d="M738.778,516.3c-23.133,4.442-45.565-10.763-50.009-33.894
			c-4.441-23.133,10.764-45.565,33.896-50.008s45.564,10.763,50.008,33.895C777.115,489.425,761.91,511.857,738.778,516.3
			 M741.707,531.552c31.592-6.067,52.284-36.596,46.217-68.188c-6.066-31.593-36.596-52.284-68.188-46.218
			c-31.593,6.067-52.284,36.596-46.218,68.188C679.586,516.926,710.114,537.618,741.707,531.552"/>
		<g opacity="0.3" clip-path="url(#SVGID_38_)">
			<g>
				<defs>
					<rect id="SVGID_45_" x="144.683" y="-31.25" width="116.516" height="116.516"/>
				</defs>
				<clipPath id="SVGID_46_">
					<use xlink:href="#SVGID_45_"  overflow="visible"/>
				</clipPath>
				<path clip-path="url(#SVGID_46_)" d="M210.997,68.959c-23.132,4.442-45.565-10.763-50.008-33.895
					c-4.441-23.132,10.764-45.565,33.895-50.007c23.132-4.443,45.565,10.762,50.007,33.894
					C249.334,42.083,234.129,64.517,210.997,68.959 M213.926,84.21c31.592-6.067,52.284-36.596,46.217-68.188
					c-6.067-31.592-36.595-52.284-68.188-46.217c-31.592,6.067-52.284,36.596-46.217,68.188
					C151.805,69.585,182.334,90.277,213.926,84.21"/>
			</g>
		</g>
		<path clip-path="url(#SVGID_38_)" fill="#FFFFFF" d="M200.997,58.959c-23.132,4.442-45.565-10.763-50.008-33.895
			c-4.441-23.132,10.764-45.565,33.895-50.007c23.132-4.443,45.565,10.762,50.007,33.894
			C239.334,32.083,224.129,54.517,200.997,58.959 M203.926,74.21c31.592-6.067,52.284-36.596,46.217-68.188
			c-6.067-31.592-36.595-52.284-68.188-46.217c-31.592,6.067-52.284,36.596-46.217,68.188
			C141.805,59.585,172.334,80.277,203.926,74.21"/>
		<g opacity="0.3" clip-path="url(#SVGID_38_)">
			<g>
				<defs>
					<rect id="SVGID_47_" x="118.547" y="421.672" width="29.651" height="29.65"/>
				</defs>
				<clipPath id="SVGID_48_">
					<use xlink:href="#SVGID_47_"  overflow="visible"/>
				</clipPath>
				<path clip-path="url(#SVGID_48_)" d="M148.155,437.613c-0.616,8.164-7.734,14.283-15.899,13.666
					c-8.164-0.616-14.282-7.734-13.666-15.898c0.617-8.163,7.735-14.283,15.899-13.666
					C142.653,422.331,148.772,429.449,148.155,437.613"/>
			</g>
		</g>
		<path clip-path="url(#SVGID_38_)" fill="#FFFFFF" d="M138.155,447.613c-0.616,8.164-7.734,14.283-15.899,13.666
			c-8.164-0.616-14.282-7.734-13.666-15.898c0.617-8.163,7.735-14.283,15.899-13.666
			C132.653,432.331,138.772,439.449,138.155,447.613"/>
		<g opacity="0.3" clip-path="url(#SVGID_38_)">
			<g>
				<defs>
					<rect id="SVGID_49_" x="620.977" y="34.228" width="29.651" height="29.651"/>
				</defs>
				<clipPath id="SVGID_50_">
					<use xlink:href="#SVGID_49_"  overflow="visible"/>
				</clipPath>
				<path clip-path="url(#SVGID_50_)" d="M650.585,50.17c-0.616,8.165-7.734,14.283-15.897,13.667
					c-8.164-0.617-14.284-7.735-13.666-15.899c0.615-8.164,7.733-14.283,15.897-13.667C645.083,34.888,651.201,42.006,650.585,50.17
					"/>
			</g>
		</g>
		<path clip-path="url(#SVGID_38_)" fill="#FFFFFF" d="M660.585,40.17c-0.616,8.165-7.734,14.283-15.897,13.667
			c-8.164-0.617-14.284-7.735-13.666-15.899c0.615-8.164,7.733-14.283,15.897-13.667C655.083,24.888,661.201,32.006,660.585,40.17"
			/>
		<g opacity="0.3" clip-path="url(#SVGID_38_)">
			<g>
				<defs>
					<rect id="SVGID_51_" x="162.338" y="410.088" width="16.414" height="16.414"/>
				</defs>
				<clipPath id="SVGID_52_">
					<use xlink:href="#SVGID_51_"  overflow="visible"/>
				</clipPath>
				<path clip-path="url(#SVGID_52_)" d="M178.728,418.913c-0.341,4.521-4.282,7.906-8.801,7.565
					c-4.519-0.342-7.907-4.282-7.565-8.802c0.341-4.52,4.282-7.906,8.801-7.564C175.683,410.453,179.069,414.394,178.728,418.913"/>
			</g>
		</g>
		<path clip-path="url(#SVGID_38_)" fill="#FFFFFF" d="M168.728,428.913c-0.341,4.521-4.282,7.906-8.801,7.565
			c-4.519-0.342-7.907-4.282-7.565-8.802c0.341-4.52,4.282-7.906,8.801-7.564C165.683,420.453,169.069,424.394,168.728,428.913"/>
		<g opacity="0.3" clip-path="url(#SVGID_38_)">
			<g>
				<defs>
					<rect id="SVGID_53_" x="656.759" y="68.853" width="16.414" height="16.413"/>
				</defs>
				<clipPath id="SVGID_54_">
					<use xlink:href="#SVGID_53_"  overflow="visible"/>
				</clipPath>
				<path clip-path="url(#SVGID_54_)" d="M673.149,77.678c-0.342,4.519-4.282,7.906-8.801,7.565
					c-4.52-0.341-7.907-4.282-7.565-8.801c0.341-4.519,4.281-7.907,8.801-7.565C670.104,69.218,673.49,73.158,673.149,77.678"/>
			</g>
		</g>
		<path clip-path="url(#SVGID_38_)" fill="#FFFFFF" d="M683.149,67.678c-0.342,4.519-4.282,7.906-8.801,7.565
			c-4.52-0.341-7.907-4.282-7.565-8.801c0.341-4.519,4.281-7.907,8.801-7.565C680.104,59.218,683.49,63.158,683.149,67.678"/>
		<g opacity="0.3" clip-path="url(#SVGID_38_)">
			<g>
				<defs>
					<rect id="SVGID_55_" x="585.86" y="392.666" width="64.768" height="64.768"/>
				</defs>
				<clipPath id="SVGID_56_">
					<use xlink:href="#SVGID_55_"  overflow="visible"/>
				</clipPath>
				<path clip-path="url(#SVGID_56_)" d="M586.447,431.156c-3.372-17.563,8.13-34.531,25.69-37.903
					c17.561-3.373,34.531,8.13,37.903,25.69s-8.13,34.53-25.69,37.903C606.789,460.218,589.819,448.717,586.447,431.156"/>
			</g>
		</g>
		<path clip-path="url(#SVGID_38_)" fill="#FFFFFF" d="M596.447,441.156c-3.372-17.563,8.13-34.531,25.69-37.903
			c17.561-3.373,34.531,8.13,37.903,25.69s-8.13,34.53-25.69,37.903C616.789,470.218,599.819,458.717,596.447,441.156"/>
		<g opacity="0.3" clip-path="url(#SVGID_38_)">
			<g>
				<defs>
					<rect id="SVGID_57_" x="53.026" y="-15.714" width="64.768" height="64.768"/>
				</defs>
				<clipPath id="SVGID_58_">
					<use xlink:href="#SVGID_57_"  overflow="visible"/>
				</clipPath>
				<path clip-path="url(#SVGID_58_)" d="M53.613,22.776c-3.372-17.561,8.13-34.531,25.691-37.903
					c17.56-3.373,34.531,8.13,37.903,25.69c3.372,17.561-8.13,34.531-25.691,37.903C73.955,51.839,56.986,40.337,53.613,22.776"/>
			</g>
		</g>
		<path clip-path="url(#SVGID_38_)" fill="#FFFFFF" d="M43.613,12.776c-3.372-17.561,8.13-34.531,25.691-37.903
			c17.56-3.373,34.531,8.13,37.903,25.69c3.372,17.561-8.13,34.531-25.691,37.903C63.955,41.839,46.986,30.337,43.613,12.776"/>
		<g opacity="0.3" clip-path="url(#SVGID_38_)">
			<g>
				<defs>
					<rect id="SVGID_59_" x="-22.384" y="394.118" width="64.768" height="64.768"/>
				</defs>
				<clipPath id="SVGID_60_">
					<use xlink:href="#SVGID_59_"  overflow="visible"/>
				</clipPath>
				<path clip-path="url(#SVGID_60_)" d="M-21.797,432.608c-3.373-17.562,8.129-34.531,25.69-37.903s34.531,8.13,37.904,25.69
					c3.372,17.562-8.13,34.531-25.691,37.903C-1.455,461.67-18.424,450.169-21.797,432.608"/>
			</g>
		</g>
		<path clip-path="url(#SVGID_38_)" fill="#FFFFFF" d="M-31.797,442.608c-3.373-17.562,8.129-34.531,25.69-37.903
			s34.531,8.13,37.904,25.69c3.372,17.562-8.13,34.531-25.691,37.903C-11.455,471.67-28.424,460.169-31.797,442.608"/>
		<g opacity="0.3" clip-path="url(#SVGID_38_)">
			<g>
				<defs>
					<rect id="SVGID_61_" x="656.981" y="369.203" width="32.384" height="32.384"/>
				</defs>
				<clipPath id="SVGID_62_">
					<use xlink:href="#SVGID_61_"  overflow="visible"/>
				</clipPath>
				<path clip-path="url(#SVGID_62_)" d="M657.274,388.448c-1.687-8.78,4.065-17.266,12.846-18.951
					c8.78-1.687,17.265,4.064,18.951,12.845s-4.064,17.266-12.845,18.951C667.445,402.979,658.961,397.229,657.274,388.448"/>
			</g>
		</g>
		<path clip-path="url(#SVGID_38_)" fill="#FFFFFF" d="M667.274,398.448c-1.687-8.78,4.065-17.266,12.846-18.951
			c8.78-1.687,17.265,4.064,18.951,12.845s-4.064,17.266-12.845,18.951C677.445,412.979,668.961,407.229,667.274,398.448"/>
		<g opacity="0.3" clip-path="url(#SVGID_38_)">
			<g>
				<defs>
					<rect id="SVGID_63_" x="112.299" y="53.538" width="32.384" height="32.384"/>
				</defs>
				<clipPath id="SVGID_64_">
					<use xlink:href="#SVGID_63_"  overflow="visible"/>
				</clipPath>
				<path clip-path="url(#SVGID_64_)" d="M112.592,72.783c-1.687-8.78,4.065-17.265,12.845-18.951
					c8.78-1.687,17.265,4.064,18.952,12.845c1.686,8.78-4.065,17.265-12.845,18.951C122.763,87.315,114.278,81.564,112.592,72.783"
					/>
			</g>
		</g>
		<path clip-path="url(#SVGID_38_)" fill="#FFFFFF" d="M102.592,62.783c-1.687-8.78,4.065-17.265,12.845-18.951
			c8.78-1.687,17.265,4.064,18.952,12.845c1.686,8.78-4.065,17.265-12.845,18.951C112.763,77.315,104.278,71.564,102.592,62.783"/>
		<g opacity="0.3" clip-path="url(#SVGID_38_)">
			<g>
				<defs>
					<rect id="SVGID_65_" x="26.192" y="353.011" width="32.384" height="32.384"/>
				</defs>
				<clipPath id="SVGID_66_">
					<use xlink:href="#SVGID_65_"  overflow="visible"/>
				</clipPath>
				<path clip-path="url(#SVGID_66_)" d="M26.485,372.257c-1.686-8.781,4.065-17.266,12.845-18.952
					c8.781-1.687,17.266,4.064,18.952,12.846c1.686,8.78-4.065,17.265-12.845,18.951C36.656,386.788,28.171,381.037,26.485,372.257"
					/>
			</g>
		</g>
		<path clip-path="url(#SVGID_38_)" fill="#FFFFFF" d="M16.485,382.257c-1.686-8.781,4.065-17.266,12.845-18.952
			c8.781-1.687,17.266,4.064,18.952,12.846c1.686,8.78-4.065,17.265-12.845,18.951C26.656,396.788,18.171,391.037,16.485,382.257"/>
	</g>
</g>
</svg>
