<svg id="Layer_1" data-name="Layer 1" xmlns="http://www.w3.org/2000/svg" xmlns:xlink="http://www.w3.org/1999/xlink" viewBox="0 0 512 512"><defs><linearGradient id="linear-gradient" x1="256" y1="838.84" x2="256" y2="-57.34" gradientUnits="userSpaceOnUse"><stop offset="0" stop-color="#231f20"/><stop offset="1" stop-color="#58595b"/></linearGradient></defs><title>chess</title><path d="M374.92,309.68c-.53,7.39-1.45,12.59-4.66,16.46A696.3,696.3,0,0,1,256,335.59,694.75,694.75,0,0,1,146.78,327c-1.66-2.72-1.27-5.93.16-9.56,3.76-9.58,14.9-21.56,22.38-30.71l58.23-70.48c12.4-15,27.43-29.51,8.25-36.46-7.81-2.82-15.75-5-23.71-7.41-14.34-4.37-24.75-7.78-40-7.78-.57,14.62-1.29,15.82-9.47,14.73-12-1.64-18-6.7-22.68-14.73-6.6-11.27-7.21-22.17-7.44-34.24-.32-16.63,17.34-17.5,29.65-26.32C179,92,193.91,75.28,206.68,57.89c6.46-8.82,11.22-20.21,20.83-25.88,5-3,7-1.18,16,3.09l14.78,7.16L257.29,2c10.07-3.35,12.54-2.43,22.24,2.8,14.82,8,27.3,19.4,39.93,30.83L316.4,45.82l11.75-3.07,5.12,5.08c42.19,42.23,46.81,112.5,46.32,168.71C379.33,247.47,377.25,278.19,374.92,309.68ZM256,486.83a598.5,598.5,0,0,1-123.44-12.77c-.18,15.7-1.62,17.69,16,23.28,58.51,18.45,148,19.26,209.43,3.7,22.86-5.79,21.69-7.65,21.34-27A599.74,599.74,0,0,1,256,486.83ZM158,349.28c.71,1.09,1.38,2.13,2.29,3.39,12,16.4,13.34,25.4-4.73,41.82-14.53,13.25-23.28,22.24-23.14,45.81l.11,11.32a13.17,13.17,0,0,0,3.14,2.15A578.17,578.17,0,0,0,256,466.33,577.69,577.69,0,0,0,379.26,453.1v-6.88c0-25.81-7.65-36.23-23.74-51.52-16.58-15.79-17.46-24.18-3.07-40.13a27.77,27.77,0,0,0,4-5.63A717.61,717.61,0,0,1,256,356.07,719.57,719.57,0,0,1,158,349.28Z" fill="url(#linear-gradient)"/></svg>